PathFileType	4	(X/Y/Z)	SUBJ26_3_walk_RCNL2025.trc
DataRate	CameraRate	NumFrames	NumMarkers	Units	OrigDataRate	OrigDataStartFrame	OrigNumFrames
100	100	9	25	mm	100	48	379
Frame#	Time	R_Shoulder			L_Shoulder			C7			J_Notch			R_Elbow			L_Elbow			R_Wrist			L_Wrist			R_Asis			L_Asis			Sacral			Thoracic			Sternum			R_Thigh_Lateral			R_Knee_Lateral			R_Shank_Lateral			R_Ankle_Lateral			R_Heel			R_Toe			L_Thigh_Lateral			L_Knee_Lateral			L_Shank_Lateral			L_Ankle_Lateral			L_Heel			L_Toe		
		X1	Y1	Z1	X2	Y2	Z2	X3	Y3	Z3	X4	Y4	Z4	X5	Y5	Z5	X6	Y6	Z6	X7	Y7	Z7	X8	Y8	Z8	X9	Y9	Z9	X10	Y10	Z10	X11	Y11	Z11	X12	Y12	Z12	X13	Y13	Z13	X14	Y14	Z14	X15	Y15	Z15	X16	Y16	Z16	X17	Y17	Z17	X18	Y18	Z18	X19	Y19	Z19	X20	Y20	Z20	X21	Y21	Z21	X22	Y22	Z22	X23	Y23	Z23	X24	Y24	Z24	X25	Y25	Z25
48	0.47000000	-2006.031250	1307.002930	313.151611	-2013.564697	1314.965210	-22.455772	-2090.763672	1373.259033	156.198990	-1947.211060	1272.127075	139.315933	-2119.772461	995.821838	397.624481	-2045.252319	992.215149	-125.649246	-2094.109619	744.971344	365.505417	-1918.833130	780.276001	-133.441868	-1976.836792	901.218994	272.913910	-2010.275391	915.558716	-30.061592	-2196.677002	915.346436	149.473709	-2177.199219	1030.881592	147.940094	-1913.269531	1011.481995	142.989990	-1967.849487	572.362000	335.369904	-1898.729126	445.218048	281.790802	-1953.240356	309.383362	320.796082	-2029.350952	83.572372	244.069885	-2080.644775	82.148750	180.944626	-1914.752563	49.205193	223.955582	-2066.866943	599.729980	-54.621826	-2093.418213	433.515930	29.212791	-2118.380127	251.299255	-30.867783	-2152.464600	50.290764	61.492443	-2218.214355	31.430429	108.485062	-2036.915894	35.708572	106.618492
49	0.48000000	-1995.154419	1305.586670	313.286499	-2000.857666	1313.704590	-22.225327	-2078.834717	1372.011963	155.879547	-1935.343384	1270.748047	139.705139	-2109.924805	994.325989	396.331879	-2028.030762	991.220886	-126.159500	-2084.731323	743.478485	363.501282	-1896.747803	782.122498	-132.520924	-1965.133179	900.242126	272.555511	-1998.948120	914.234375	-30.294952	-2184.978760	914.214722	149.818146	-2165.544189	1029.755859	147.700745	-1901.654419	1010.565186	143.227966	-1952.182739	572.289001	334.503387	-1881.191650	446.114746	280.483490	-1929.532837	308.057037	320.448975	-1989.656982	76.504822	245.054626	-2040.450439	71.416595	181.611938	-1872.881348	49.215500	226.163864	-2060.453369	598.912720	-54.513119	-2090.333740	433.448334	29.182230	-2117.067871	251.281387	-31.094498	-2152.372803	50.321278	61.477211	-2218.174561	31.665924	108.448135	-2036.802490	35.557884	106.609192
50	0.49000000	-1984.196655	1303.989868	313.420929	-1988.158813	1312.199585	-21.952969	-2066.917236	1370.552734	155.607742	-1923.441895	1269.204102	140.094818	-2099.918457	992.668579	395.152771	-2010.828125	990.073547	-126.572548	-2075.040039	741.836731	361.670120	-1874.881287	783.854034	-131.490517	-1953.340698	899.019775	272.270508	-1987.369873	912.854309	-30.466429	-2173.158936	912.911682	150.191467	-2153.783447	1028.411377	147.569077	-1889.931274	1009.418579	143.558426	-1937.191895	571.785583	333.552856	-1864.395874	446.558624	279.245544	-1905.824341	306.378021	320.118195	-1949.729370	70.269310	245.823090	-1999.883911	61.822933	182.128510	-1831.281128	49.800716	227.815521	-2054.410400	598.120361	-54.528290	-2087.390381	433.439301	29.091761	-2115.913330	251.355988	-31.379639	-2152.295654	50.393921	61.458099	-2218.144043	31.959467	108.418999	-2036.751221	35.432713	106.553253
51	0.50000000	-1973.139038	1302.234375	313.558838	-1975.470337	1310.465820	-21.641100	-2055.007080	1368.885498	155.390625	-1911.500732	1267.499634	140.485367	-2089.750977	990.868774	394.101532	-1993.653931	988.786438	-126.886238	-2065.017029	740.072815	360.016739	-1853.247314	785.468567	-130.347809	-1941.447388	897.580444	272.049469	-1975.577271	911.395935	-30.572680	-2161.217041	911.437744	150.585709	-2141.909912	1026.852783	147.539291	-1878.078857	1008.032776	143.982666	-1922.928955	570.814453	332.533783	-1848.262207	446.539246	278.102997	-1882.003906	304.389313	319.775604	-1909.834595	64.993851	246.321228	-1959.244751	53.550900	182.409119	-1790.169922	50.936069	228.902054	-2048.685059	597.373840	-54.661785	-2084.517334	433.490387	28.959011	-2114.866699	251.533829	-31.691200	-2152.222168	50.527359	61.455425	-2218.118896	32.339977	108.415565	-2036.739868	35.325531	106.474281
52	0.51000000	-1961.968872	1300.337524	313.707306	-1962.787598	1308.521973	-21.290880	-2043.095581	1367.019409	155.232391	-1899.512085	1265.640137	140.879166	-2079.420898	988.942078	393.193085	-1976.523315	987.374939	-127.100883	-2054.641357	738.211792	358.546616	-1831.863770	786.960846	-129.090721	-1929.440063	895.947754	271.880524	-1963.627930	909.826172	-30.617363	-2149.152344	909.792786	150.994873	-2129.918945	1025.091187	147.607468	-1866.080688	1006.407410	144.490860	-1909.418823	569.350281	331.480682	-1832.696533	446.066620	277.057007	-1858.075439	302.183716	319.382172	-1870.288086	60.755154	246.520569	-1918.886475	46.716446	182.400360	-1749.791748	52.576546	229.453583	-2043.174072	596.682678	-54.892097	-2081.593750	433.592041	28.805466	-2113.828613	251.815399	-31.995266	-2152.136475	50.741394	61.486969	-2218.092773	32.843601	108.455063	-2036.743042	35.228031	106.393204
53	0.52000000	-1950.677612	1298.313599	313.875885	-1950.101318	1306.392334	-20.903231	-2031.168823	1364.970337	155.135590	-1887.465576	1263.637207	141.280090	-2068.925537	986.900208	392.441254	-1959.458496	985.856018	-127.219330	-2043.896301	736.273621	357.263321	-1810.755859	788.326355	-127.719650	-1917.303833	894.138489	271.749756	-1951.568848	908.114441	-30.614119	-2136.962158	907.979065	151.415222	-2117.808105	1023.144470	147.771591	-1853.928345	1004.555237	145.064651	-1896.644531	567.383911	330.433167	-1817.605591	445.171600	276.077972	-1834.190674	299.881622	318.888794	-1831.446045	57.571789	246.420410	-1879.196655	41.350056	182.083618	-1710.422607	54.663456	229.537170	-2037.730347	596.043579	-55.188229	-2078.454346	433.719360	28.657377	-2112.661133	252.186768	-32.258194	-2152.022461	51.057716	61.565311	-2218.055664	33.511925	108.551315	-2036.741211	35.136341	106.325043
54	0.53000000	-1939.259521	1296.177612	314.074463	-1937.400269	1304.108398	-20.479588	-2019.210449	1362.762573	155.102264	-1875.351562	1261.509277	141.693207	-2058.259277	984.753662	391.857513	-1942.489502	984.248352	-127.244942	-2032.774963	734.270203	356.166763	-1789.955078	789.565857	-126.239357	-1905.023438	892.165649	271.647186	-1939.430542	906.243042	-30.582270	-2124.640137	906.004578	151.846237	-2105.574707	1021.036987	148.031219	-1841.617310	1002.506104	145.684952	-1884.541016	564.923096	329.411469	-1802.908813	443.900818	275.109772	-1810.639771	297.598450	318.236969	-1793.697144	55.399181	246.042496	-1840.582886	37.387039	181.470383	-1672.374268	57.130436	229.248611	-2032.178223	595.441406	-55.516670	-2074.909912	433.834290	28.542744	-2111.210938	252.621704	-32.450615	-2151.864746	51.498333	61.695938	-2217.994873	34.389042	108.711678	-2036.721069	35.050640	106.279694
55	0.54000000	-1927.709839	1293.946533	314.312378	-1924.672363	1301.706909	-20.021194	-2007.203491	1360.429565	155.134079	-1863.162598	1259.279907	142.125748	-2047.410889	982.515259	391.450165	-1925.653198	982.571716	-127.179657	-2021.283325	732.206390	355.253815	-1769.497620	790.684052	-124.659695	-1892.582886	890.042603	271.570923	-1927.227661	904.212219	-30.540155	-2112.177246	903.887085	152.292313	-2093.215576	1018.798706	148.386795	-1829.145264	1000.305786	146.337143	-1873.004883	561.991211	328.402191	-1788.543945	442.308929	274.083557	-1787.801758	295.411560	317.369812	-1757.451904	54.126633	245.418533	-1803.463501	34.664314	180.586304	-1635.992310	59.909157	228.699646	-2026.330200	594.851501	-55.846222	-2070.774658	433.894958	28.483942	-2109.342529	253.092178	-32.552559	-2151.650146	52.082771	61.875690	-2217.896973	35.517277	108.934425	-2036.672974	34.972973	106.262428
56	0.55000000	-1916.023438	1291.638794	314.599274	-1911.905640	1299.227783	-19.527948	-1995.131104	1358.014038	155.233154	-1850.893677	1256.977783	142.587677	-2036.364014	980.202209	391.225006	-1908.988770	980.846252	-127.023102	-2009.441467	730.084625	354.519623	-1749.421326	791.688568	-122.995060	-1879.964111	887.786865	271.524902	-1914.960449	902.040405	-30.500700	-2099.558838	901.655884	152.763290	-2080.723389	1016.464111	148.838165	-1816.512573	998.008911	147.010239	-1861.913818	558.629517	327.361786	-1774.466187	440.450104	272.934998	-1766.066040	293.338470	316.245972	-1723.127808	53.579285	244.574142	-1768.252686	32.931763	179.450989	-1601.644165	62.925385	228.001526	-2020.004639	594.242554	-56.150879	-2065.901855	433.868347	28.491505	-2106.963135	253.583511	-32.559334	-2151.365967	52.828182	62.091118	-2217.747803	36.933395	109.206871	-2036.588867	34.906700	106.272987
